<svg width="877" height="960" viewBox="0 0 877 960" fill="none" xmlns="http://www.w3.org/2000/svg">
<g filter="url(#filter0_f_6_1033)">
<path d="M301.299 332.133C292.987 154.445 459.815 167.282 544.268 195.911C642.841 217.083 853.813 317.193 909.121 548.251C978.255 837.073 782.441 1173.43 470.338 916.569C158.236 659.705 603.012 831.48 559.054 577.013C515.096 322.546 311.69 554.243 301.299 332.133Z" fill="url(#paint0_radial_6_1033)" fill-opacity="0.2"/>
<path d="M301.299 332.133C292.987 154.445 459.815 167.282 544.268 195.911C642.841 217.083 853.813 317.193 909.121 548.251C978.255 837.073 782.441 1173.43 470.338 916.569C158.236 659.705 603.012 831.48 559.054 577.013C515.096 322.546 311.69 554.243 301.299 332.133Z" stroke="black"/>
</g>
<g filter="url(#filter1_f_6_1033)">
<path d="M345.299 345.133C336.987 167.445 503.815 180.282 588.268 208.911C686.841 230.083 897.813 330.193 953.121 561.251C1022.25 850.073 826.441 1186.43 514.338 929.569C202.236 672.705 647.012 844.48 603.054 590.013C559.096 335.546 355.69 567.243 345.299 345.133Z" fill="url(#paint1_radial_6_1033)" fill-opacity="0.2"/>
<path d="M345.299 345.133C336.987 167.445 503.815 180.282 588.268 208.911C686.841 230.083 897.813 330.193 953.121 561.251C1022.25 850.073 826.441 1186.43 514.338 929.569C202.236 672.705 647.012 844.48 603.054 590.013C559.096 335.546 355.69 567.243 345.299 345.133Z" stroke="black"/>
</g>
<defs>
<filter id="filter0_f_6_1033" x="0.500031" y="-121.5" width="1223" height="1430" filterUnits="userSpaceOnUse" color-interpolation-filters="sRGB">
<feFlood flood-opacity="0" result="BackgroundImageFix"/>
<feBlend mode="normal" in="SourceGraphic" in2="BackgroundImageFix" result="shape"/>
<feGaussianBlur stdDeviation="150" result="effect1_foregroundBlur_6_1033"/>
</filter>
<filter id="filter1_f_6_1033" x="44.5" y="-108.5" width="1223" height="1430" filterUnits="userSpaceOnUse" color-interpolation-filters="sRGB">
<feFlood flood-opacity="0" result="BackgroundImageFix"/>
<feBlend mode="normal" in="SourceGraphic" in2="BackgroundImageFix" result="shape"/>
<feGaussianBlur stdDeviation="150" result="effect1_foregroundBlur_6_1033"/>
</filter>
<radialGradient id="paint0_radial_6_1033" cx="0" cy="0" r="1" gradientUnits="userSpaceOnUse" gradientTransform="translate(612 593.5) rotate(90) scale(414.5 311)">
<stop stop-color="#00B7FF" stop-opacity="0.6"/>
<stop offset="1" stop-color="#00B7FF" stop-opacity="0.2"/>
</radialGradient>
<radialGradient id="paint1_radial_6_1033" cx="0" cy="0" r="1" gradientUnits="userSpaceOnUse" gradientTransform="translate(656 606.5) rotate(90) scale(414.5 311)">
<stop stop-color="#FF0066" stop-opacity="0.6"/>
<stop offset="1" stop-color="#FF00AE" stop-opacity="0.2"/>
</radialGradient>
</defs>
</svg>
