<svg width="847" height="851" viewBox="0 0 847 851" fill="none" xmlns="http://www.w3.org/2000/svg">
<g filter="url(#filter0_f_3_14)">
<path d="M-304.313 250.81C-386.219 -115.271 29.1849 -40.7644 40.9277 -40.7644C141.721 10.3735 357.574 98.3346 414.645 41.0758C485.983 -30.4978 621.613 66.3025 495.084 378.997C368.554 691.691 258.465 250.81 121.366 430.917C-15.7316 611.024 -222.406 616.891 -304.313 250.81Z" fill="url(#paint0_radial_3_14)" fill-opacity="0.02"/>
</g>
<g filter="url(#filter1_f_3_14)">
<path d="M-326.313 222.81C-408.219 -143.271 7.18488 -68.7644 18.9277 -68.7644C119.721 -17.6265 335.574 70.3346 392.645 13.0758C463.983 -58.4978 599.613 38.3025 473.084 350.997C346.554 663.691 236.465 222.81 99.3665 402.917C-37.7316 583.024 -244.406 588.891 -326.313 222.81Z" fill="url(#paint1_radial_3_14)" fill-opacity="0.02"/>
</g>
<g filter="url(#filter2_f_3_14)">
<path d="M-353.313 200.81C-435.219 -165.271 -19.8151 -90.7644 -8.07227 -90.7644C92.7208 -39.6265 308.574 48.3346 365.645 -8.92423C436.983 -80.4978 572.613 16.3025 446.084 328.997C319.554 641.691 209.465 200.81 72.3665 380.917C-64.7316 561.024 -271.406 566.891 -353.313 200.81Z" fill="url(#paint2_radial_3_14)" fill-opacity="0.05"/>
</g>
<g filter="url(#filter3_f_3_14)">
<path d="M-393.313 167.81C-475.219 -198.271 -59.8151 -123.764 -48.0723 -123.764C52.7208 -72.6265 268.574 15.3346 325.645 -41.9242C396.983 -113.498 532.613 -16.6975 406.084 295.997C279.554 608.691 169.465 167.81 32.3665 347.917C-104.732 528.024 -311.406 533.891 -393.313 167.81Z" fill="url(#paint3_radial_3_14)" fill-opacity="0.1"/>
</g>
<g filter="url(#filter4_f_3_14)">
<path d="M-435.313 130.81C-517.219 -235.271 -101.815 -160.764 -90.0723 -160.764C10.7208 -109.627 226.574 -21.6654 283.645 -78.9242C354.983 -150.498 490.613 -53.6975 364.084 258.997C237.554 571.691 127.465 130.81 -9.63351 310.917C-146.732 491.024 -353.406 496.891 -435.313 130.81Z" fill="url(#paint4_radial_3_14)" fill-opacity="0.15"/>
</g>
<g filter="url(#filter5_f_3_14)">
<path d="M-472.313 90.8098C-554.219 -275.271 -138.815 -200.764 -127.072 -200.764C-26.2792 -149.627 189.574 -61.6654 246.645 -118.924C317.983 -190.498 453.613 -93.6975 327.084 218.997C200.554 531.691 90.4646 90.8098 -46.6335 270.917C-183.732 451.024 -390.406 456.891 -472.313 90.8098Z" fill="url(#paint5_radial_3_14)" fill-opacity="0.2"/>
</g>
<defs>
<filter id="filter0_f_3_14" x="-615" y="-347" width="1462" height="1198" filterUnits="userSpaceOnUse" color-interpolation-filters="sRGB">
<feFlood flood-opacity="0" result="BackgroundImageFix"/>
<feBlend mode="normal" in="SourceGraphic" in2="BackgroundImageFix" result="shape"/>
<feGaussianBlur stdDeviation="150" result="effect1_foregroundBlur_3_14"/>
</filter>
<filter id="filter1_f_3_14" x="-637" y="-375" width="1462" height="1198" filterUnits="userSpaceOnUse" color-interpolation-filters="sRGB">
<feFlood flood-opacity="0" result="BackgroundImageFix"/>
<feBlend mode="normal" in="SourceGraphic" in2="BackgroundImageFix" result="shape"/>
<feGaussianBlur stdDeviation="150" result="effect1_foregroundBlur_3_14"/>
</filter>
<filter id="filter2_f_3_14" x="-664" y="-397" width="1462" height="1198" filterUnits="userSpaceOnUse" color-interpolation-filters="sRGB">
<feFlood flood-opacity="0" result="BackgroundImageFix"/>
<feBlend mode="normal" in="SourceGraphic" in2="BackgroundImageFix" result="shape"/>
<feGaussianBlur stdDeviation="150" result="effect1_foregroundBlur_3_14"/>
</filter>
<filter id="filter3_f_3_14" x="-704" y="-430" width="1462" height="1198" filterUnits="userSpaceOnUse" color-interpolation-filters="sRGB">
<feFlood flood-opacity="0" result="BackgroundImageFix"/>
<feBlend mode="normal" in="SourceGraphic" in2="BackgroundImageFix" result="shape"/>
<feGaussianBlur stdDeviation="150" result="effect1_foregroundBlur_3_14"/>
</filter>
<filter id="filter4_f_3_14" x="-746" y="-467" width="1462" height="1198" filterUnits="userSpaceOnUse" color-interpolation-filters="sRGB">
<feFlood flood-opacity="0" result="BackgroundImageFix"/>
<feBlend mode="normal" in="SourceGraphic" in2="BackgroundImageFix" result="shape"/>
<feGaussianBlur stdDeviation="150" result="effect1_foregroundBlur_3_14"/>
</filter>
<filter id="filter5_f_3_14" x="-783" y="-507" width="1462" height="1198" filterUnits="userSpaceOnUse" color-interpolation-filters="sRGB">
<feFlood flood-opacity="0" result="BackgroundImageFix"/>
<feBlend mode="normal" in="SourceGraphic" in2="BackgroundImageFix" result="shape"/>
<feGaussianBlur stdDeviation="150" result="effect1_foregroundBlur_3_14"/>
</filter>
<radialGradient id="paint0_radial_3_14" cx="0" cy="0" r="1" gradientUnits="userSpaceOnUse" gradientTransform="translate(116 252) rotate(90) scale(299 431)">
<stop stop-color="#4BF3FF" stop-opacity="0.6"/>
<stop offset="1" stop-color="#B0FFFF" stop-opacity="0.1"/>
</radialGradient>
<radialGradient id="paint1_radial_3_14" cx="0" cy="0" r="1" gradientUnits="userSpaceOnUse" gradientTransform="translate(94 224) rotate(90) scale(299 431)">
<stop stop-color="#4BF3FF" stop-opacity="0.6"/>
<stop offset="1" stop-color="#B0FFFF" stop-opacity="0.1"/>
</radialGradient>
<radialGradient id="paint2_radial_3_14" cx="0" cy="0" r="1" gradientUnits="userSpaceOnUse" gradientTransform="translate(67 202) rotate(90) scale(299 431)">
<stop stop-color="#4BF3FF" stop-opacity="0.6"/>
<stop offset="1" stop-color="#B0FFFF" stop-opacity="0.1"/>
</radialGradient>
<radialGradient id="paint3_radial_3_14" cx="0" cy="0" r="1" gradientUnits="userSpaceOnUse" gradientTransform="translate(27 169) rotate(90) scale(299 431)">
<stop stop-color="#4BF3FF" stop-opacity="0.6"/>
<stop offset="1" stop-color="#B0FFFF" stop-opacity="0.1"/>
</radialGradient>
<radialGradient id="paint4_radial_3_14" cx="0" cy="0" r="1" gradientUnits="userSpaceOnUse" gradientTransform="translate(-15 132) rotate(90) scale(299 431)">
<stop stop-color="#430FFF" stop-opacity="0.6"/>
<stop offset="1" stop-color="#8E8CFF" stop-opacity="0.1"/>
</radialGradient>
<radialGradient id="paint5_radial_3_14" cx="0" cy="0" r="1" gradientUnits="userSpaceOnUse" gradientTransform="translate(-52 92) rotate(90) scale(299 431)">
<stop stop-color="#FF3AA9" stop-opacity="0.6"/>
<stop offset="1" stop-color="#FF0084" stop-opacity="0.1"/>
</radialGradient>
</defs>
</svg>
